<svg xmlns="http://www.w3.org/2000/svg" xmlns:xlink="http://www.w3.org/1999/xlink" xmlns:inkscape="http://www.inkscape.org/namespaces/inkscape" version="1.1" viewBox="68 62 632 644">
<defs>
<clipPath id="clip_1">
<path transform="matrix(1,0,0,-1,0,768)" d="M0 768H768V0H0Z"/>
</clipPath>
</defs>
<g clip-path="url(#clip_1)">
<path transform="matrix(1,0,0,-1,647.0177,512.4997)" d="M0 0C0 0-51.015 27.803-148.943-30.324-163.019-38.679-217.363-83.581-255.204-98.616-282.732-109.553-320.568-125.965-377.008-124.225-451.416-121.932-504.228-91.991-504.228-91.991-504.228-91.991-438.947-190.576-312.156-182.197-225.389-176.464-189.077-147.032-164.997-127.156-143.266-109.219-98.871-59.373-68.292-36.949-41.781-17.507 0 0 0 0" fill="#24659f"/>
<path transform="matrix(1,0,0,-1,688.8084,473.1935)" d="M0 0C0 0-12.518 11.974-79.122 9.747-136.266 7.836-206.861-42.025-217.299-50.072-226.077-56.841-318.208-131.106-421.602-123.652-598.533-110.897-609.278 8.982-609.278 8.982-609.278 8.982-573.348-41.854-451.798-38.032-371.53-33.828-345.337-17.015-291.261 8.6-240.424 32.681-202.574 62.599-115.816 65.553-32.872 68.377 0 0 0 0" fill="#24659f"/>
<path transform="matrix(1,0,0,-1,445.7069,348.7839)" d="M0 0-59.141-34.145-118.281-68.29C-122.241-70.576-127.192-67.718-127.192-63.145V5.145 73.434C-127.192 78.007-122.241 80.865-118.281 78.579L-59.141 44.434 0 10.289C3.96 8.003 3.96 2.287 0 0M-63.985 137.16C-167.642 137.16-251.678 53.124-251.678-50.543-251.678-84.008-242.915-115.436-227.555-142.643-221.507-142.733-215.229-142.693-208.692-142.484-128.429-138.272-102.24-121.465-48.156-95.845 1.906-72.141 39.383-42.759 123.369-39.056 117.441 59.262 35.83 137.16-63.985 137.16" fill="#fcbc17"/>
<path transform="matrix(1,0,0,-1,383.3809,187.09851)" d="M0 0V0C-6.046 0-10.948 4.902-10.948 10.948V103.748C-10.948 109.795-6.046 114.696 0 114.696 6.046 114.696 10.948 109.795 10.948 103.748V10.948C10.948 4.902 6.046 0 0 0" fill="#fcbc17"/>
<path transform="matrix(1,0,0,-1,467.1969,201.02533)" d="M0 0V0C-5.544 2.414-8.08 8.865-5.666 14.409L31.388 99.491C33.802 105.034 40.253 107.571 45.796 105.157 51.34 102.742 53.877 96.291 51.462 90.748L14.409 5.666C11.995 .122 5.544-2.414 0 0" fill="#fcbc17"/>
<path transform="matrix(1,0,0,-1,536.6986,248.82721)" d="M0 0V0C-4.275 4.275-4.275 11.207 0 15.483L65.62 81.102C69.895 85.378 76.827 85.378 81.102 81.102H81.103C85.378 76.827 85.378 69.895 81.103 65.62L15.483 0C11.207-4.276 4.275-4.276 0 0" fill="#fcbc17"/>
<path transform="matrix(1,0,0,-1,580.9482,319.9456)" d="M0 0V0C-2.244 5.615 .489 11.985 6.104 14.229L92.28 48.662C97.895 50.906 104.265 48.173 106.508 42.558 108.752 36.943 106.019 30.573 100.404 28.329L14.229-6.104C8.614-8.348 2.244-5.615 0 0" fill="#fcbc17"/>
<path transform="matrix(1,0,0,-1,301.1421,201.45673)" d="M0 0V0C5.544 2.414 8.08 8.865 5.666 14.409L-31.388 99.491C-33.802 105.034-40.253 107.571-45.796 105.157-51.34 102.742-53.877 96.291-51.462 90.748L-14.409 5.666C-11.995 .122-5.544-2.414 0 0" fill="#fcbc17"/>
<path transform="matrix(1,0,0,-1,231.6404,249.25873)" d="M0 0V0C4.275 4.275 4.275 11.207 0 15.483L-65.62 81.102C-69.895 85.378-76.827 85.378-81.102 81.102-85.378 76.827-85.378 69.895-81.102 65.62L-15.483 0C-11.207-4.276-4.275-4.276 0 0" fill="#fcbc17"/>
<path transform="matrix(1,0,0,-1,187.3907,320.3771)" d="M0 0V0C2.244 5.615-.489 11.985-6.104 14.229L-92.28 48.662C-97.895 50.906-104.265 48.173-106.508 42.558-108.752 36.943-106.019 30.573-100.404 28.329L-14.229-6.104C-8.614-8.348-2.244-5.615 0 0" fill="#fcbc17"/>
</g>
</svg>
